<svg fill="none" height="450" viewBox="0 0 900 450" width="900" xmlns="http://www.w3.org/2000/svg"><path d="m0 0h900v450h-900z" fill="#f7f7f7"/><path clip-rule="evenodd" d="m436.429 179h-32.858v6.571h-6.571v85.429h6.571 92 6.572v-72.286h-6.572v-6.571h-19.714v-6.572h-6.571v-6.571h-26.286v6.571h-6.571zm0 6.571v13.143h6.571 52.571v65.715h-92v-78.858zm6.571 0v6.572h26.286v-6.572zm-19.714 26.286h-6.572v6.572h6.572v6.571h-6.572v6.571h6.572v-6.571h6.571v6.571h6.572v-6.571h-6.572v-6.571h6.572v-6.572h-6.572v6.572h-6.571zm39.428 13.143h6.572v6.571h-6.572zm6.572-6.571v-6.572h-6.572v6.572zm6.571 0h-6.571v6.571h6.571v6.571h6.572v-6.571h-6.572zm0 0v-6.572h6.572v6.572zm-59.143 26.285h6.572 6.571v6.572h-6.571-6.572zm39.429 0h-6.572-6.571-6.571-6.572v-6.571h6.572 6.571 6.571 6.572zm13.143 6.572h-6.572-6.571v-6.572h6.571 6.572zm0 0h6.571 6.572v6.571h-6.572-6.571z" fill="#525252" fill-rule="evenodd"/></svg>