<svg fill="none" height="480" viewBox="0 0 900 480" width="900" xmlns="http://www.w3.org/2000/svg"><path d="m0 0h900v480h-900z" fill="#fff"/><path d="m551.5 147.5-88 92" stroke="#2f2f2f"/><path d="m543.5 246.5-79-7" stroke="#2f2f2f"/><path d="m591.5 190.5-127 49" stroke="#2f2f2f"/><path d="m490.5 381.5-28-141" stroke="#2f2f2f"/><path d="m583.5 328.5-120-89" stroke="#2f2f2f"/><path d="m629.5 384.5-167-145" stroke="#2f2f2f"/><path d="m602.5 272.5-139-33" stroke="#2f2f2f"/><path d="m632.5 225.5-169 15" stroke="#2f2f2f"/><path d="m650.5 131.5-187 108" stroke="#2f2f2f"/><path d="m636.5 73.5-173 166" stroke="#2f2f2f"/><path d="m680.5 299.5-217-61" stroke="#2f2f2f"/><path d="m726.5 293.5-264-54" stroke="#2f2f2f"/><path d="m730.5 230.5-268 9" stroke="#2f2f2f"/><path d="m709.5 156.5-247 83" stroke="#2f2f2f"/><path d="m697.5 90.5-234 149" stroke="#2f2f2f"/><path d="m767.5 173.5-304 67" stroke="#2f2f2f"/><path d="m800.5 283.5-338-44" stroke="#2f2f2f"/><path d="m590.5 322.5 1.5 1.5" stroke="#2f2f2f"/><path d="m740.5 347.5-277-108" stroke="#2f2f2f"/><path d="m796.5 382.5-333-143" stroke="#2f2f2f"/><path d="m376.5 388.5 87-149" stroke="#2f2f2f"/><path d="m423.5 332.5 40-92" stroke="#2f2f2f"/><path d="m460.5 299.5 3-60" stroke="#2f2f2f"/><path d="m312.5 183.5 151 56" stroke="#2f2f2f"/><path d="m199.5 128.5 264 111" stroke="#2f2f2f"/><path d="m255.5 88.5 208 151" stroke="#2f2f2f"/><path d="m355.5 158.5 108 81" stroke="#2f2f2f"/><path d="m371.5 89.5 92 150" stroke="#2f2f2f"/><path d="m423.5 79.5 40 160" stroke="#2f2f2f"/><path d="m448.5 178.5 15 60" stroke="#2f2f2f"/><path d="m449.5 126.5 14 113" stroke="#2f2f2f"/><path d="m487.5 90.5-24 149" stroke="#2f2f2f"/><path d="m487.5 171.5-24 67" stroke="#2f2f2f"/><path d="m230.5 180.5 233 59" stroke="#2f2f2f"/><path d="m162.5 294.5 302-55" stroke="#2f2f2f"/><path d="m235.5 326.5 228-87" stroke="#2f2f2f"/><path d="m194.5 381.5 269-142" stroke="#2f2f2f"/><path d="m294.5 353.5 169-114" stroke="#2f2f2f"/><path d="m282.5 408.5 181-169" stroke="#2f2f2f"/><path d="m101.5 110.5 361 129" stroke="#2f2f2f"/><path d="m165.5 204.5 298 35" stroke="#2f2f2f"/><path d="m245.5 247.5 217-8" stroke="#2f2f2f"/><path d="m306.5 235.5 157 3" stroke="#2f2f2f"/><g fill="#2f2f2f"><ellipse cx="131.756" cy="387.371" rx="7.26069" ry="7.27083"/><ellipse cx="194.197" cy="381.554" rx="7.26069" ry="7.27083"/><ellipse cx="282.778" cy="407.729" rx="7.26069" ry="7.27083"/><ellipse cx="294.395" cy="353.925" rx="7.26069" ry="7.27083"/><ellipse cx="234.857" cy="326.296" rx="7.26069" ry="7.27083"/><ellipse cx="162.25" cy="294.304" rx="7.26069" ry="7.27083"/><ellipse cx="163.703" cy="204.146" rx="7.26069" ry="7.27083"/><ellipse cx="101.261" cy="111.079" rx="7.26069" ry="7.27083"/><ellipse cx="198.554" cy="128.529" rx="7.26069" ry="7.27083"/><ellipse cx="255.187" cy="89.2667" rx="7.26069" ry="7.27083"/><ellipse cx="311.821" cy="183.787" rx="7.26069" ry="7.27083"/><ellipse cx="306.012" cy="236.137" rx="7.26069" ry="7.27083"/><ellipse cx="355.385" cy="159.067" rx="7.26069" ry="7.27083"/><ellipse cx="371.358" cy="89.2667" rx="7.26069" ry="7.27083"/><ellipse cx="423.635" cy="79.0875" rx="7.26069" ry="7.27083"/><ellipse cx="449.774" cy="127.075" rx="7.26069" ry="7.27083"/><ellipse cx="448.322" cy="179.425" rx="7.26069" ry="7.27083"/><ellipse cx="461.391" cy="298.667" rx="7.26069" ry="7.27083"/><ellipse cx="462.843" cy="239.046" rx="7.26069" ry="7.27083"/><ellipse cx="423.635" cy="332.113" rx="7.26069" ry="7.27083"/><ellipse cx="375.715" cy="388.825" rx="7.26069" ry="7.27083"/><ellipse cx="490.434" cy="381.554" rx="7.26069" ry="7.27083"/><ellipse cx="628.387" cy="384.463" rx="7.26069" ry="7.27083"/><ellipse cx="583.371" cy="327.75" rx="7.26069" ry="7.27083"/><ellipse cx="542.711" cy="246.317" rx="7.26069" ry="7.27083"/><ellipse cx="602.248" cy="272.492" rx="7.26069" ry="7.27083"/><ellipse cx="632.743" cy="225.958" rx="7.26069" ry="7.27083"/><ellipse cx="709.707" cy="156.158" rx="7.26069" ry="7.27083"/><ellipse cx="767.792" cy="173.608" rx="7.26069" ry="7.27083"/><ellipse cx="730.037" cy="230.321" rx="7.26069" ry="7.27083"/><ellipse cx="799.739" cy="284.125" rx="7.26069" ry="7.27083"/><ellipse cx="725.68" cy="292.85" rx="7.26069" ry="7.27083"/><ellipse cx="680.664" cy="298.667" rx="7.26069" ry="7.27083"/><ellipse cx="740.202" cy="346.654" rx="7.26069" ry="7.27083"/><ellipse cx="795.383" cy="381.554" rx="7.26069" ry="7.27083"/><ellipse cx="487.529" cy="172.154" rx="7.26069" ry="7.27083"/><ellipse cx="487.529" cy="90.7208" rx="7.26069" ry="7.27083"/><ellipse cx="551.424" cy="147.433" rx="7.26069" ry="7.27083"/><ellipse cx="635.648" cy="73.2708" rx="7.26069" ry="7.27083"/><ellipse cx="650.169" cy="131.438" rx="7.26069" ry="7.27083"/><ellipse cx="696.637" cy="90.7208" rx="7.26069" ry="7.27083"/><ellipse cx="590.631" cy="191.058" rx="7.26069" ry="7.27083"/><ellipse cx="230.501" cy="180.879" rx="7.26069" ry="7.27083"/><ellipse cx="245.022" cy="247.771" rx="7.26069" ry="7.27083"/><ellipse cx="394.012" cy="243.137" rx="7.26069" ry="7.27083"/><ellipse cx="317.012" cy="306.138" rx="7.26069" ry="7.27083"/><ellipse cx="350.012" cy="346.138" rx="7.26069" ry="7.27083"/></g><path d="m132.5 387.5 331-149" stroke="#2f2f2f"/><path d="m394.5 243.5 69-5" stroke="#2f2f2f"/></svg>