<svg fill="none" height="480" viewBox="0 0 900 480" width="900" xmlns="http://www.w3.org/2000/svg"><path d="m0 0h900v480h-900z" fill="#fff"/><path d="m462.5 298.5 123 31" stroke="#2f2f2f"/><path d="m462.5 299.5 80-54" stroke="#2f2f2f"/><path d="m164.5 204.5-64-93" stroke="#2f2f2f"/><path d="m100.5 111.5 98 18" stroke="#2f2f2f"/><path d="m198.5 129.5 57-40" stroke="#2f2f2f"/><path d="m255.5 89.5 100 70" stroke="#2f2f2f"/><path d="m355.5 159.5 16-70" stroke="#2f2f2f"/><path d="m371.5 89.5h-116" stroke="#2f2f2f"/><path d="m371.5 90.5 52-11" stroke="#2f2f2f"/><path d="m423.5 78.5 27 49" stroke="#2f2f2f"/><path d="m451.5 126.5 36-36" stroke="#2f2f2f"/><path d="m424.5 79.5 63 12" stroke="#2f2f2f"/><path d="m487.5 91.5 148-18" stroke="#2f2f2f"/><path d="m635.5 73.5 62 18" stroke="#2f2f2f"/><path d="m697.5 91.5-47 40" stroke="#2f2f2f"/><path d="m650.5 131.5-99 16" stroke="#2f2f2f"/><path d="m551.5 147.5-64 25" stroke="#2f2f2f"/><path d="m487.5 172.5-38-45" stroke="#2f2f2f"/><path d="m488.5 90.5 64 57" stroke="#2f2f2f"/><path d="m450.5 126.5-3 54" stroke="#2f2f2f"/><ellipse cx="131.756" cy="387.371" fill="#2f2f2f" rx="7.26069" ry="7.27083"/><ellipse cx="194.197" cy="381.554" fill="#2f2f2f" rx="7.26069" ry="7.27083"/><ellipse cx="282.778" cy="407.729" fill="#2f2f2f" rx="7.26069" ry="7.27083"/><ellipse cx="294.395" cy="353.925" fill="#2f2f2f" rx="7.26069" ry="7.27083"/><ellipse cx="234.857" cy="326.296" fill="#2f2f2f" rx="7.26069" ry="7.27083"/><ellipse cx="162.25" cy="294.304" fill="#2f2f2f" rx="7.26069" ry="7.27083"/><ellipse cx="163.703" cy="204.146" fill="#2f2f2f" rx="7.26069" ry="7.27083"/><ellipse cx="101.261" cy="111.079" fill="#2f2f2f" rx="7.26069" ry="7.27083"/><ellipse cx="198.554" cy="128.529" fill="#2f2f2f" rx="7.26069" ry="7.27083"/><ellipse cx="255.187" cy="89.2667" fill="#2f2f2f" rx="7.26069" ry="7.27083"/><ellipse cx="311.821" cy="183.787" fill="#2f2f2f" rx="7.26069" ry="7.27083"/><ellipse cx="306.012" cy="236.138" fill="#2f2f2f" rx="7.26069" ry="7.27083"/><ellipse cx="394.012" cy="243.138" fill="#2f2f2f" rx="7.26069" ry="7.27083"/><ellipse cx="317.012" cy="306.138" fill="#2f2f2f" rx="7.26069" ry="7.27083"/><ellipse cx="350.012" cy="346.138" fill="#2f2f2f" rx="7.26069" ry="7.27083"/><ellipse cx="355.385" cy="159.067" fill="#2f2f2f" rx="7.26069" ry="7.27083"/><ellipse cx="371.358" cy="89.2667" fill="#2f2f2f" rx="7.26069" ry="7.27083"/><ellipse cx="423.635" cy="79.0875" fill="#2f2f2f" rx="7.26069" ry="7.27083"/><ellipse cx="449.774" cy="127.075" fill="#2f2f2f" rx="7.26069" ry="7.27083"/><ellipse cx="448.322" cy="179.425" fill="#2f2f2f" rx="7.26069" ry="7.27083"/><ellipse cx="461.391" cy="298.667" fill="#2f2f2f" rx="7.26069" ry="7.27083"/><ellipse cx="462.843" cy="239.046" fill="#2f2f2f" rx="7.26069" ry="7.27083"/><ellipse cx="423.635" cy="332.113" fill="#2f2f2f" rx="7.26069" ry="7.27083"/><ellipse cx="375.715" cy="388.825" fill="#2f2f2f" rx="7.26069" ry="7.27083"/><ellipse cx="490.434" cy="381.554" fill="#2f2f2f" rx="7.26069" ry="7.27083"/><ellipse cx="628.387" cy="384.462" fill="#2f2f2f" rx="7.26069" ry="7.27083"/><ellipse cx="583.371" cy="327.75" fill="#2f2f2f" rx="7.26069" ry="7.27083"/><ellipse cx="542.711" cy="246.317" fill="#2f2f2f" rx="7.26069" ry="7.27083"/><ellipse cx="602.248" cy="272.492" fill="#2f2f2f" rx="7.26069" ry="7.27083"/><ellipse cx="632.743" cy="225.958" fill="#2f2f2f" rx="7.26069" ry="7.27083"/><ellipse cx="709.707" cy="156.158" fill="#2f2f2f" rx="7.26069" ry="7.27083"/><ellipse cx="767.792" cy="173.608" fill="#2f2f2f" rx="7.26069" ry="7.27083"/><ellipse cx="730.037" cy="230.321" fill="#2f2f2f" rx="7.26069" ry="7.27083"/><ellipse cx="799.739" cy="284.125" fill="#2f2f2f" rx="7.26069" ry="7.27083"/><ellipse cx="725.68" cy="292.85" fill="#2f2f2f" rx="7.26069" ry="7.27083"/><ellipse cx="680.664" cy="298.667" fill="#2f2f2f" rx="7.26069" ry="7.27083"/><ellipse cx="740.202" cy="346.654" fill="#2f2f2f" rx="7.26069" ry="7.27083"/><ellipse cx="795.383" cy="381.554" fill="#2f2f2f" rx="7.26069" ry="7.27083"/><ellipse cx="487.529" cy="172.154" fill="#2f2f2f" rx="7.26069" ry="7.27083"/><ellipse cx="487.529" cy="90.7208" fill="#2f2f2f" rx="7.26069" ry="7.27083"/><ellipse cx="551.424" cy="147.433" fill="#2f2f2f" rx="7.26069" ry="7.27083"/><ellipse cx="635.648" cy="73.2708" fill="#2f2f2f" rx="7.26069" ry="7.27083"/><ellipse cx="650.169" cy="131.438" fill="#2f2f2f" rx="7.26069" ry="7.27083"/><ellipse cx="696.637" cy="90.7208" fill="#2f2f2f" rx="7.26069" ry="7.27083"/><ellipse cx="590.631" cy="191.058" fill="#2f2f2f" rx="7.26069" ry="7.27083"/><ellipse cx="230.501" cy="180.879" fill="#2f2f2f" rx="7.26069" ry="7.27083"/><ellipse cx="245.022" cy="247.771" fill="#2f2f2f" rx="7.26069" ry="7.27083"/><g stroke="#2f2f2f"><path d="m394.5 243.5-40-84"/><path d="m394.5 244.5 69-6"/><path d="m463.5 238.5-15-58"/><path d="m463.5 239.5 24-67"/><path d="m487.5 172.5 55 74"/><path d="m542.5 247.5-79-9"/><path d="m463.5 238.5-2 61"/><path d="m461.5 299.5-37 33"/><path d="m424.5 332.5-30-88"/><path d="m424.5 332.5-75 14"/><path d="m349.5 346.5-32-40"/><path d="m317.5 306.5 77-64"/><path d="m317.5 306.5-11-70"/><path d="m306.5 236.5-61 11"/><path d="m245.5 247.5-15-67"/><path d="m230.5 180.5 82 3"/><path d="m230.5 180.5-32-51"/><path d="m230.5 180.5-67 24"/><path d="m163.5 204.5 81 43"/><path d="m163.5 204.5-2 90"/><path d="m162.5 294.5 72 32"/><path d="m234.5 326.5 11-78"/><path d="m235.5 326.5 82-20"/><path d="m317.5 306.5-22 47"/><path d="m294.5 354.5-60-27"/><path d="m294.5 354.5 56-8"/><path d="m294.5 354.5-11 53"/><path d="m283.5 407.5-89-26"/><path d="m194.5 381.5 40-55"/><path d="m162.5 294.5-31 94"/><path d="m131.5 388.5 63-7"/><path d="m283.5 408.5 92-20"/><path d="m375.5 388.5-26-41"/><path d="m376.5 389.5 48-57"/><path d="m424.5 332.5 65 50"/><path d="m489.5 382.5-28-83"/><path d="m376.5 389.5 114-8"/><path d="m490.5 381.5 93-54"/><path d="m583.5 327.5 18-55"/><path d="m583.5 328.5-40-81"/><path d="m584.5 328.5 44 57"/><path d="m602.5 272.5-12-81"/><path d="m590.5 191.5-48 55"/><path d="m551.5 147.5 40 43"/><path d="m591.5 190.5 59-59"/><path d="m650.5 131.5-15-58"/><path d="m651.5 131.5 59 25"/><path d="m710.5 156.5-14-65"/><path d="m651.5 131.5-18 95"/><path d="m633.5 226.5-43-35"/><path d="m633.5 226.5-31 46"/><path d="m602.5 272.5 79 26"/><path d="m681.5 298.5-47-72"/><path d="m634.5 226.5 96 4"/><path d="m730.5 230.5-20-74"/><path d="m710.5 156.5 58 17"/><path d="m768.5 173.5-38 57"/><path d="m681.5 298.5 44-5"/><path d="m725.5 293.5 5-62"/><path d="m768.5 173.5 31 111"/><path d="m799.5 284.5-73 9"/><path d="m726.5 293.5 14 53"/><path d="m740.5 346.5 55 36"/><path d="m795.5 382.5 4-98"/><path d="m681.5 298.5-53 87"/><path d="m628.5 386.5 112-40"/><path d="m740.5 347.5-60-49"/><path d="m628.5 385.5-138-3"/><path d="m447.5 180.5 40-8"/><path d="m355.5 158.5 95-31"/><path d="m448.5 180.5-93-21"/><path d="m355.5 159.5-43 24"/><path d="m312.5 183.5-58-94"/><path d="m312.5 183.5-6 52"/><path d="m306.5 235.5 87 8"/></g></svg>