<svg width="900" height="480" viewBox="0 0 900 480" fill="none" xmlns="http://www.w3.org/2000/svg">
<rect width="900" height="480" fill="#FAFAFA"/>
<path d="M371.026 330.464L344.882 362.49M371.026 330.464L367.105 362.49M371.026 330.464L389.98 362.49" stroke="black" stroke-width="4" stroke-linecap="round" stroke-linejoin="round"/>
<path d="M420.699 331.118L401.091 361.837M420.699 331.118V361.837M420.699 331.118L441.614 361.837" stroke="black" stroke-width="4" stroke-linecap="round" stroke-linejoin="round"/>
<path d="M486.059 328.503L442.922 361.837M486.059 328.503L465.797 361.837M486.059 328.503L492.595 361.837M486.059 328.503L514.163 361.837" stroke="black" stroke-width="4" stroke-linecap="round" stroke-linejoin="round"/>
<path d="M565.144 329.157L512.856 362.49M565.144 329.157L530.503 362.49M565.144 329.157L551.418 362.49M565.144 329.157L575.601 362.49M565.144 329.157L597.824 362.49M565.144 329.157L625.928 362.49" stroke="black" stroke-width="4" stroke-linecap="round" stroke-linejoin="round"/>
<path d="M435.078 99.0327L448.15 84L461.876 99.0327H435.078Z" stroke="black" stroke-width="4"/>
<path d="M301.092 329.157L250.765 362.49M301.092 329.157L270.373 362.49M301.092 329.157L297.824 362.49M301.092 329.157L320.699 362.49M301.092 329.157L343.575 362.49" stroke="black" stroke-width="4" stroke-linecap="round" stroke-linejoin="round"/>
<path d="M433.405 125.867L431.137 124.04L428.428 120.974L432.502 117.068L433.447 116.501L433.93 116.396L433.972 116.186H429.604L429.562 116.396L430.654 116.648L430.948 117.173L430.99 117.929L427.504 121.268L427.399 121.163L427.42 111.986H426.517L424.081 112.532V112.742L425.194 112.931L425.824 113.351V125.909L425.173 126.35L424.06 126.476V126.686H429.163V126.476L428.05 126.35L427.399 125.909V122.15L427.63 122.255L429.94 124.943L431.431 126.266L431.977 126.686H434.707L434.665 126.476L433.405 125.867ZM443.127 123.746L442.35 123.305L441.048 125.657L439.032 126.392L436.743 125.363L435.672 122.612L435.819 121.562L439.137 121.751L443.274 121.121L442.959 118.916L441.909 117.236L439.641 115.976L437.058 116.543L434.811 118.895L434.265 121.772L435.441 125.363L438.444 126.896L441.006 126.371L443.127 123.746ZM436.176 119.147L437.331 117.047L438.99 116.48L440.544 117.215L441.468 118.937L441.573 120.932L438.717 121.31L435.882 121.142L436.176 119.147ZM447.256 117.026H450.133V116.186H447.991L446.92 116.333L447.256 115.388V112.406H446.836L446.248 113.624L445.681 116.417L443.896 116.606V117.026H445.681V124.691L447.088 126.896L449.335 126.497L450.217 124.775L449.839 124.565L448.936 125.93L447.949 125.783L447.256 124.229V117.026ZM453.555 117.026H456.432V116.186H454.29L453.219 116.333L453.555 115.388V112.406H453.135L452.547 113.624L451.98 116.417L450.195 116.606V117.026H451.98V124.691L453.387 126.896L455.634 126.497L456.516 124.775L456.138 124.565L455.235 125.93L454.248 125.783L453.555 124.229V117.026ZM460.263 125.909L460.284 111.986H459.381L456.945 112.532V112.742L458.058 112.931L458.688 113.351V125.909L458.037 126.35L456.924 126.476V126.686H462.027V126.476L460.914 126.35L460.263 125.909ZM471.069 123.746L470.292 123.305L468.99 125.657L466.974 126.392L464.685 125.363L463.614 122.612L463.761 121.562L467.079 121.751L471.216 121.121L470.901 118.916L469.851 117.236L467.583 115.976L465 116.543L462.753 118.895L462.207 121.772L463.383 125.363L466.386 126.896L468.948 126.371L471.069 123.746ZM464.118 119.147L465.273 117.047L466.932 116.48L468.486 117.215L469.41 118.937L469.515 120.932L466.659 121.31L463.824 121.142L464.118 119.147Z" fill="black"/>
<path d="M331.192 205.783L332.683 205.195L334.489 205.3V203.725H333.124L331.108 204.502L329.764 206.581L329.134 209.5L327.328 209.689V210.109H329.113V217.543L329.092 217.648L328.441 218.089L327.328 218.215V218.425H332.851V218.215L331.528 218.089L330.688 217.669V210.109H333.565V209.269H331.423L330.688 209.353V208.429L330.814 206.833L331.192 205.783ZM344.154 217.648V207.925H343.251L340.815 208.471V208.681L341.928 208.87L342.579 209.311V214.855L341.256 216.955L339.891 217.69L338.547 217.459L337.518 216.136L337.539 207.925H336.636L334.2 208.471V208.681L335.313 208.87L335.943 209.29V216.493L337.287 218.236L339.156 218.635L340.605 218.278L341.571 217.648L342.684 215.422L342.579 216.346V217.27L342.306 218.215V218.425H345.918V218.215L344.805 218.089L344.154 217.648ZM355.662 217.648V209.857L354.318 208.114L352.449 207.715L351 208.072L350.034 208.702L348.921 210.928L349.026 210.004V207.925H348.123L345.687 208.471V208.681L346.8 208.87L347.451 209.311V217.648L346.8 218.089L345.687 218.215V218.425H350.79V218.215L349.677 218.089L349.026 217.648V211.495L350.349 209.395L351.714 208.66L353.058 208.891L354.087 210.214V217.648L353.436 218.089L352.323 218.215V218.425H357.426V218.215L356.313 218.089L355.662 217.648ZM365.805 209.458L362.991 207.715L360.408 208.282L358.161 210.634L357.615 213.511L358.791 217.102L361.794 218.635L364.356 218.11L366.477 215.485L365.7 215.044L364.398 217.396L362.382 218.131L360.093 217.102L359.022 214.351L359.526 210.886L360.681 208.786L362.34 208.219L364.44 209.437L364.923 211.957L366.477 211.642L365.805 209.458ZM370.237 208.765H373.114V207.925H370.972L369.901 208.072L370.237 207.127V204.145H369.817L369.229 205.363L368.662 208.156L366.877 208.345V208.765H368.662V216.43L370.069 218.635L372.316 218.236L373.198 216.514L372.82 216.304L371.917 217.669L370.93 217.522L370.237 215.968V208.765ZM377.014 205.174V204.859L376.09 203.725H375.817L374.851 204.859V205.174L375.775 206.308H376.09L377.014 205.174ZM376.72 217.648L376.741 207.925H375.838L373.402 208.471V208.681L374.515 208.87L375.145 209.29V217.648L374.494 218.089L373.381 218.215V218.425H378.484V218.215L377.371 218.089L376.72 217.648ZM385.195 218.11L387.421 215.716L388.114 212.23L386.686 209.353L384.04 207.715L381.457 208.282L379.21 210.634L378.664 213.511L379.84 216.892L382.633 218.635L385.195 218.11ZM381.142 216.892L380.071 214.351L380.575 210.886L381.73 208.786L383.389 208.219L385.489 209.437L386.56 212.419L386.056 215.884L384.985 217.543L383.221 218.131L381.142 216.892ZM398.311 217.648V209.857L396.967 208.114L395.098 207.715L393.649 208.072L392.683 208.702L391.57 210.928L391.675 210.004V207.925H390.772L388.336 208.471V208.681L389.449 208.87L390.1 209.311V217.648L389.449 218.089L388.336 218.215V218.425H393.439V218.215L392.326 218.089L391.675 217.648V211.495L392.998 209.395L394.363 208.66L395.707 208.891L396.736 210.214V217.648L396.085 218.089L394.972 218.215V218.425H400.075V218.215L398.962 218.089L398.311 217.648Z" fill="black"/>
<path d="M250.204 294.303L247.642 294.828L246.235 296.151V294.513H245.332L242.896 295.059V295.269L244.009 295.458L244.66 295.899V308.436L244.009 308.877L242.896 309.003V309.213H248.419V309.003L247.096 308.877L246.235 308.436V304.719L246.151 303.816L248.041 305.223L250.96 304.656L252.892 302.304L253.438 299.637L252.262 296.046L250.204 294.303ZM250.603 304.194L248.167 304.593L246.235 303.144V296.718L247.747 295.395L249.763 294.954L250.918 296.487L251.989 299.238L251.527 302.052L250.603 304.194ZM258.728 294.513L257.804 295.29L256.859 297.516L256.964 296.592V294.513H256.061L253.625 295.059V295.269L254.738 295.458L255.389 295.899V304.236L254.738 304.677L253.625 304.803V305.013H258.728V304.803L257.615 304.677L256.964 304.236V298.083L258.119 295.983L259.442 295.227L260.996 295.479L261.29 294.471L260.387 294.303L258.728 294.513ZM267.571 304.698L269.797 302.304L270.49 298.818L269.062 295.941L266.416 294.303L263.833 294.87L261.586 297.222L261.04 300.099L262.216 303.48L265.009 305.223L267.571 304.698ZM263.518 303.48L262.447 300.939L262.951 297.474L264.106 295.374L265.765 294.807L267.865 296.025L268.936 299.007L268.432 302.472L267.361 304.131L265.597 304.719L263.518 303.48ZM280.752 304.236V290.313H279.849L277.413 290.859V291.069L278.526 291.258L279.177 291.699V294.807L279.261 295.71L277.371 294.303L274.452 294.87L272.52 297.222L271.974 300.309L273.15 303.48L275.208 305.223L277.77 304.698L279.177 303.375V303.858L278.904 304.803V305.013H282.516V304.803L281.403 304.677L280.752 304.236ZM277.665 304.131L275.649 304.572L274.494 303.039L273.423 300.708L273.885 297.474L274.809 295.332L277.245 294.933L279.177 296.382V302.808L277.665 304.131ZM292.236 304.236V294.513H291.333L288.897 295.059V295.269L290.01 295.458L290.661 295.899V301.443L289.338 303.543L287.973 304.278L286.629 304.047L285.6 302.724L285.621 294.513H284.718L282.282 295.059V295.269L283.395 295.458L284.025 295.878V303.081L285.369 304.824L287.238 305.223L288.687 304.866L289.653 304.236L290.766 302.01L290.661 302.934V303.858L290.388 304.803V305.013H294V304.803L292.887 304.677L292.236 304.236ZM302.379 296.046L299.565 294.303L296.982 294.87L294.735 297.222L294.189 300.099L295.365 303.69L298.368 305.223L300.93 304.698L303.051 302.073L302.274 301.632L300.972 303.984L298.956 304.719L296.667 303.69L295.596 300.939L296.1 297.474L297.255 295.374L298.914 294.807L301.014 296.025L301.497 298.545L303.051 298.23L302.379 296.046ZM306.811 295.353H309.688V294.513H307.546L306.475 294.66L306.811 293.715V290.733H306.391L305.803 291.951L305.236 294.744L303.451 294.933V295.353H305.236V303.018L306.643 305.223L308.89 304.824L309.772 303.102L309.394 302.892L308.491 304.257L307.504 304.11L306.811 302.556V295.353ZM313.588 291.762V291.447L312.664 290.313H312.391L311.425 291.447V291.762L312.349 292.896H312.664L313.588 291.762ZM313.294 304.236L313.315 294.513H312.412L309.976 295.059V295.269L311.089 295.458L311.719 295.878V304.236L311.068 304.677L309.955 304.803V305.013H315.058V304.803L313.945 304.677L313.294 304.236ZM321.769 304.698L323.995 302.304L324.688 298.818L323.26 295.941L320.614 294.303L318.031 294.87L315.784 297.222L315.238 300.099L316.414 303.48L319.207 305.223L321.769 304.698ZM317.716 303.48L316.645 300.939L317.149 297.474L318.304 295.374L319.963 294.807L322.063 296.025L323.134 299.007L322.63 302.472L321.559 304.131L319.795 304.719L317.716 303.48ZM334.885 304.236V296.445L333.541 294.702L331.672 294.303L330.223 294.66L329.257 295.29L328.144 297.516L328.249 296.592V294.513H327.346L324.91 295.059V295.269L326.023 295.458L326.674 295.899V304.236L326.023 304.677L324.91 304.803V305.013H330.013V304.803L328.9 304.677L328.249 304.236V298.083L329.572 295.983L330.937 295.248L332.281 295.479L333.31 296.802V304.236L332.659 304.677L331.546 304.803V305.013H336.649V304.803L335.536 304.677L334.885 304.236Z" fill="black"/>
<path d="M354.852 301.947L355.062 303.144L353.466 304.509L351.681 304.824L350.4 304.215L349.413 303.186L348.573 301.989H348.363L348.825 304.32L350.568 305.202H352.458L354.642 304.824L356.049 303.333L356.112 301.8L354.579 300.078L349.413 297.579L349.203 296.382L350.799 295.017L352.584 294.702L353.865 295.311L354.852 296.34L355.692 297.537H355.902L355.44 295.206L353.697 294.324H351.807L349.623 294.702L348.216 296.193L348.153 297.726L349.686 299.448L354.852 301.947ZM358.082 303.396L359.636 304.908L361.442 305.223L362.954 304.761L363.899 303.795L364.655 302.493L364.697 303.711L364.382 304.803V305.013H367.994V304.803L366.881 304.677L366.23 304.236V298.188L365.18 295.479L363.395 294.282L360.77 294.45L359.111 295.899L358.397 297.936H359.972L360.476 296.235L361.505 295.08L362.954 294.912L364.151 296.256L364.655 297.768V298.188L359.342 300.162L357.977 301.758L358.082 303.396ZM360.539 300.414L364.655 298.629V301.674L363.815 303.249L362.303 304.047L360.371 303.669L359.636 302.808L359.552 301.548L360.539 300.414ZM371.841 292.371L373.332 291.783L375.138 291.888V290.313H373.773L371.757 291.09L370.413 293.169L369.783 296.088L367.977 296.277V296.697H369.762V304.131L369.741 304.236L369.09 304.677L367.977 304.803V305.013H373.5V304.803L372.177 304.677L371.337 304.257V296.697H374.214V295.857H372.072L371.337 295.941V295.017L371.463 293.421L371.841 292.371ZM383.927 302.073L383.15 301.632L381.848 303.984L379.832 304.719L377.543 303.69L376.472 300.939L376.619 299.889L379.937 300.078L384.074 299.448L383.759 297.243L382.709 295.563L380.441 294.303L377.858 294.87L375.611 297.222L375.065 300.099L376.241 303.69L379.244 305.223L381.806 304.698L383.927 302.073ZM376.976 297.474L378.131 295.374L379.79 294.807L381.344 295.542L382.268 297.264L382.373 299.259L379.517 299.637L376.682 299.469L376.976 297.474ZM388.057 295.353H390.934V294.513H388.792L387.721 294.66L388.057 293.715V290.733H387.637L387.049 291.951L386.482 294.744L384.697 294.933V295.353H386.482V303.018L387.889 305.223L390.136 304.824L391.018 303.102L390.64 302.892L389.737 304.257L388.75 304.11L388.057 302.556V295.353ZM398.057 294.723L398.771 294.933L399.149 295.563L399.233 296.319L396.377 302.766L396.167 302.808L394.277 296.277L394.508 295.269L396.062 294.723L396.104 294.513H391.673L391.631 294.723L392.114 295.143L392.534 295.836L395.075 304.782L394.676 306.42L393.752 307.617L392.555 307.764H391.526L391.421 309.213H392.765L394.046 308.436L395.516 305.79L399.758 296.172L400.682 295.08L402.005 294.723L402.047 294.513H398.099L398.057 294.723Z" fill="black"/>
<path d="M422.02 304.236V294.513H421.117L418.681 295.059V295.269L419.794 295.458L420.445 295.899V301.443L419.122 303.543L417.757 304.278L416.413 304.047L415.384 302.724L415.405 294.513H414.502L412.066 295.059V295.269L413.179 295.458L413.809 295.878V303.081L415.153 304.824L417.022 305.223L418.471 304.866L419.437 304.236L420.55 302.01L420.445 302.934V303.858L420.172 304.803V305.013H423.784V304.803L422.671 304.677L422.02 304.236ZM430.777 301.947L430.987 303.144L429.391 304.509L427.606 304.824L426.325 304.215L425.338 303.186L424.498 301.989H424.288L424.75 304.32L426.493 305.202H428.383L430.567 304.824L431.974 303.333L432.037 301.8L430.504 300.078L425.338 297.579L425.128 296.382L426.724 295.017L428.509 294.702L429.79 295.311L430.777 296.34L431.617 297.537H431.827L431.365 295.206L429.622 294.324H427.732L425.548 294.702L424.141 296.193L424.078 297.726L425.611 299.448L430.777 301.947ZM442.764 302.073L441.987 301.632L440.685 303.984L438.669 304.719L436.38 303.69L435.309 300.939L435.456 299.889L438.774 300.078L442.911 299.448L442.596 297.243L441.546 295.563L439.278 294.303L436.695 294.87L434.448 297.222L433.902 300.099L435.078 303.69L438.081 305.223L440.643 304.698L442.764 302.073ZM435.813 297.474L436.968 295.374L438.627 294.807L440.181 295.542L441.105 297.264L441.21 299.259L438.354 299.637L435.519 299.469L435.813 297.474Z" fill="black"/>
<path d="M465.657 296.046L462.843 294.303L460.26 294.87L458.013 297.222L457.467 300.099L458.643 303.69L461.646 305.223L464.208 304.698L466.329 302.073L465.552 301.632L464.25 303.984L462.234 304.719L459.945 303.69L458.874 300.939L459.378 297.474L460.533 295.374L462.192 294.807L464.292 296.025L464.775 298.545L466.329 298.23L465.657 296.046ZM467.685 303.396L469.239 304.908L471.045 305.223L472.557 304.761L473.502 303.795L474.258 302.493L474.3 303.711L473.985 304.803V305.013H477.597V304.803L476.484 304.677L475.833 304.236V298.188L474.783 295.479L472.998 294.282L470.373 294.45L468.714 295.899L468 297.936H469.575L470.079 296.235L471.108 295.08L472.557 294.912L473.754 296.256L474.258 297.768V298.188L468.945 300.162L467.58 301.758L467.685 303.396ZM470.142 300.414L474.258 298.629V301.674L473.418 303.249L471.906 304.047L469.974 303.669L469.239 302.808L469.155 301.548L470.142 300.414ZM484.478 294.303L481.916 294.828L480.509 296.151V294.513H479.606L477.17 295.059V295.269L478.283 295.458L478.934 295.899V308.436L478.283 308.877L477.17 309.003V309.213H482.693V309.003L481.37 308.877L480.509 308.436V304.719L480.425 303.816L482.315 305.223L485.234 304.656L487.166 302.304L487.712 299.637L486.536 296.046L484.478 294.303ZM484.877 304.194L482.441 304.593L480.509 303.144V296.718L482.021 295.395L484.037 294.954L485.192 296.487L486.263 299.238L485.801 302.052L484.877 304.194ZM491.941 291.762V291.447L491.017 290.313H490.744L489.778 291.447V291.762L490.702 292.896H491.017L491.941 291.762ZM491.647 304.236L491.668 294.513H490.765L488.329 295.059V295.269L489.442 295.458L490.072 295.878V304.236L489.421 304.677L488.308 304.803V305.013H493.411V304.803L492.298 304.677L491.647 304.236ZM496.531 295.353H499.408V294.513H497.266L496.195 294.66L496.531 293.715V290.733H496.111L495.523 291.951L494.956 294.744L493.171 294.933V295.353H494.956V303.018L496.363 305.223L498.61 304.824L499.492 303.102L499.114 302.892L498.211 304.257L497.224 304.11L496.531 302.556V295.353ZM500.2 303.396L501.754 304.908L503.56 305.223L505.072 304.761L506.017 303.795L506.773 302.493L506.815 303.711L506.5 304.803V305.013H510.112V304.803L508.999 304.677L508.348 304.236V298.188L507.298 295.479L505.513 294.282L502.888 294.45L501.229 295.899L500.515 297.936H502.09L502.594 296.235L503.623 295.08L505.072 294.912L506.269 296.256L506.773 297.768V298.188L501.46 300.162L500.095 301.758L500.2 303.396ZM502.657 300.414L506.773 298.629V301.674L505.933 303.249L504.421 304.047L502.489 303.669L501.754 302.808L501.67 301.548L502.657 300.414ZM513.435 304.236L513.456 290.313H512.553L510.117 290.859V291.069L511.23 291.258L511.86 291.678V304.236L511.209 304.677L510.096 304.803V305.013H515.199V304.803L514.086 304.677L513.435 304.236Z" fill="black"/>
<path d="M547.86 304.236V296.445L546.516 294.702L544.647 294.303L543.198 294.66L542.232 295.29L541.203 296.424L539.88 294.702L538.011 294.303L536.562 294.66L535.596 295.29L534.483 297.516L534.588 296.592V294.513H533.685L531.249 295.059V295.269L532.362 295.458L533.013 295.899V304.236L532.362 304.677L531.249 304.803V305.013H536.352V304.803L535.239 304.677L534.588 304.236V298.083L535.911 295.983L537.276 295.248L538.62 295.479L539.649 296.802V304.236L538.998 304.677L537.885 304.803V305.013H542.988V304.803L541.875 304.677L541.224 304.236V297.873L541.707 296.655L542.547 295.983L543.912 295.248L545.256 295.479L546.285 296.802V304.236L545.634 304.677L544.521 304.803V305.013H549.624V304.803L548.511 304.677L547.86 304.236ZM550.111 303.396L551.665 304.908L553.471 305.223L554.983 304.761L555.928 303.795L556.684 302.493L556.726 303.711L556.411 304.803V305.013H560.023V304.803L558.91 304.677L558.259 304.236V298.188L557.209 295.479L555.424 294.282L552.799 294.45L551.14 295.899L550.426 297.936H552.001L552.505 296.235L553.534 295.08L554.983 294.912L556.18 296.256L556.684 297.768V298.188L551.371 300.162L550.006 301.758L550.111 303.396ZM552.568 300.414L556.684 298.629V301.674L555.844 303.249L554.332 304.047L552.4 303.669L551.665 302.808L551.581 301.548L552.568 300.414ZM563.64 291.762V291.447L562.716 290.313H562.443L561.477 291.447V291.762L562.401 292.896H562.716L563.64 291.762ZM563.346 304.236L563.367 294.513H562.464L560.028 295.059V295.269L561.141 295.458L561.771 295.878V304.236L561.12 304.677L560.007 304.803V305.013H565.11V304.803L563.997 304.677L563.346 304.236ZM574.845 304.236V296.445L573.501 294.702L571.632 294.303L570.183 294.66L569.217 295.29L568.104 297.516L568.209 296.592V294.513H567.306L564.87 295.059V295.269L565.983 295.458L566.634 295.899V304.236L565.983 304.677L564.87 304.803V305.013H569.973V304.803L568.86 304.677L568.209 304.236V298.083L569.532 295.983L570.897 295.248L572.241 295.479L573.27 296.802V304.236L572.619 304.677L571.506 304.803V305.013H576.609V304.803L575.496 304.677L574.845 304.236ZM579.737 295.353H582.614V294.513H580.472L579.401 294.66L579.737 293.715V290.733H579.317L578.729 291.951L578.162 294.744L576.377 294.933V295.353H578.162V303.018L579.569 305.223L581.816 304.824L582.698 303.102L582.32 302.892L581.417 304.257L580.43 304.11L579.737 302.556V295.353ZM592.163 302.073L591.386 301.632L590.084 303.984L588.068 304.719L585.779 303.69L584.708 300.939L584.855 299.889L588.173 300.078L592.31 299.448L591.995 297.243L590.945 295.563L588.677 294.303L586.094 294.87L583.847 297.222L583.301 300.099L584.477 303.69L587.48 305.223L590.042 304.698L592.163 302.073ZM585.212 297.474L586.367 295.374L588.026 294.807L589.58 295.542L590.504 297.264L590.609 299.259L587.753 299.637L584.918 299.469L585.212 297.474ZM602.497 304.236V296.445L601.153 294.702L599.284 294.303L597.835 294.66L596.869 295.29L595.756 297.516L595.861 296.592V294.513H594.958L592.522 295.059V295.269L593.635 295.458L594.286 295.899V304.236L593.635 304.677L592.522 304.803V305.013H597.625V304.803L596.512 304.677L595.861 304.236V298.083L597.184 295.983L598.549 295.248L599.893 295.479L600.922 296.802V304.236L600.271 304.677L599.158 304.803V305.013H604.261V304.803L603.148 304.677L602.497 304.236ZM604.76 303.396L606.314 304.908L608.12 305.223L609.632 304.761L610.577 303.795L611.333 302.493L611.375 303.711L611.06 304.803V305.013H614.672V304.803L613.559 304.677L612.908 304.236V298.188L611.858 295.479L610.073 294.282L607.448 294.45L605.789 295.899L605.075 297.936H606.65L607.154 296.235L608.183 295.08L609.632 294.912L610.829 296.256L611.333 297.768V298.188L606.02 300.162L604.655 301.758L604.76 303.396ZM607.217 300.414L611.333 298.629V301.674L610.493 303.249L608.981 304.047L607.049 303.669L606.314 302.808L606.23 301.548L607.217 300.414ZM624.63 304.236V296.445L623.286 294.702L621.417 294.303L619.968 294.66L619.002 295.29L617.889 297.516L617.994 296.592V294.513H617.091L614.655 295.059V295.269L615.768 295.458L616.419 295.899V304.236L615.768 304.677L614.655 304.803V305.013H619.758V304.803L618.645 304.677L617.994 304.236V298.083L619.317 295.983L620.682 295.248L622.026 295.479L623.055 296.802V304.236L622.404 304.677L621.291 304.803V305.013H626.394V304.803L625.281 304.677L624.63 304.236ZM634.773 296.046L631.959 294.303L629.376 294.87L627.129 297.222L626.583 300.099L627.759 303.69L630.762 305.223L633.324 304.698L635.445 302.073L634.668 301.632L633.366 303.984L631.35 304.719L629.061 303.69L627.99 300.939L628.494 297.474L629.649 295.374L631.308 294.807L633.408 296.025L633.891 298.545L635.445 298.23L634.773 296.046ZM645.763 302.073L644.986 301.632L643.684 303.984L641.668 304.719L639.379 303.69L638.308 300.939L638.455 299.889L641.773 300.078L645.91 299.448L645.595 297.243L644.545 295.563L642.277 294.303L639.694 294.87L637.447 297.222L636.901 300.099L638.077 303.69L641.08 305.223L643.642 304.698L645.763 302.073ZM638.812 297.474L639.967 295.374L641.626 294.807L643.18 295.542L644.104 297.264L644.209 299.259L641.353 299.637L638.518 299.469L638.812 297.474Z" fill="black"/>
<path d="M362.496 392.987L362.979 389.186H362.769L361.782 391.139L360.795 392.147H354.054L357.078 390.383L360.207 387.401L362.874 383.621L362.769 381.752L362.076 379.946L359.871 378.371L357.519 378.077L355.881 378.539L353.739 380.051L353.004 382.592L354.621 382.697L354.852 381.227L355.965 379.547L357.162 378.833L359.388 379.316L360.984 380.975L361.236 383.537L359.745 385.889L357.162 389.102L352.794 392.357V392.987H362.496ZM367.774 392.21L367.795 378.287H366.892L364.036 379.232V379.442H365.569L366.199 379.673V392.21L365.338 392.651L364.015 392.777V392.987H369.538V392.777L368.425 392.651L367.774 392.21ZM384.908 389.921L385.118 391.118L383.522 392.483L381.737 392.798L380.456 392.189L379.469 391.16L378.629 389.963H378.419L378.881 392.294L380.624 393.176H382.514L384.698 392.798L386.105 391.307L386.168 389.774L384.635 388.052L379.469 385.553L379.259 384.356L380.855 382.991L382.64 382.676L383.921 383.285L384.908 384.314L385.748 385.511H385.958L385.496 383.18L383.753 382.298H381.863L379.679 382.676L378.272 384.167L378.209 385.7L379.742 387.422L384.908 389.921ZM394.51 382.277L391.948 382.802L390.541 384.125V382.487H389.638L387.202 383.033V383.243L388.315 383.432L388.966 383.873V396.41L388.315 396.851L387.202 396.977V397.187H392.725V396.977L391.402 396.851L390.541 396.41V392.693L390.457 391.79L392.347 393.197L395.266 392.63L397.198 390.278L397.744 387.611L396.568 384.02L394.51 382.277ZM394.909 392.168L392.473 392.567L390.541 391.118V384.692L392.053 383.369L394.069 382.928L395.224 384.461L396.295 387.212L395.833 390.026L394.909 392.168ZM408.053 390.047L407.276 389.606L405.974 391.958L403.958 392.693L401.669 391.664L400.598 388.913L400.745 387.863L404.063 388.052L408.2 387.422L407.885 385.217L406.835 383.537L404.567 382.277L401.984 382.844L399.737 385.196L399.191 388.073L400.367 391.664L403.37 393.197L405.932 392.672L408.053 390.047ZM401.102 385.448L402.257 383.348L403.916 382.781L405.47 383.516L406.394 385.238L406.499 387.233L403.643 387.611L400.808 387.443L401.102 385.448ZM417.863 384.02L415.049 382.277L412.466 382.844L410.219 385.196L409.673 388.073L410.849 391.664L413.852 393.197L416.414 392.672L418.535 390.047L417.758 389.606L416.456 391.958L414.44 392.693L412.151 391.664L411.08 388.913L411.584 385.448L412.739 383.348L414.398 382.781L416.498 383.999L416.981 386.519L418.535 386.204L417.863 384.02ZM422.364 379.736V379.421L421.44 378.287H421.167L420.201 379.421V379.736L421.125 380.87H421.44L422.364 379.736ZM422.07 392.21L422.091 382.487H421.188L418.752 383.033V383.243L419.865 383.432L420.495 383.852V392.21L419.844 392.651L418.731 392.777V392.987H423.834V392.777L422.721 392.651L422.07 392.21ZM427.458 380.345L428.949 379.757L430.755 379.862V378.287H429.39L427.374 379.064L426.03 381.143L425.4 384.062L423.594 384.251V384.671H425.379V392.105L425.358 392.21L424.707 392.651L423.594 392.777V392.987H429.117V392.777L427.794 392.651L426.954 392.231V384.671H429.831V383.831H427.689L426.954 383.915V382.991L427.08 381.395L427.458 380.345ZM434.099 379.736V379.421L433.175 378.287H432.902L431.936 379.421V379.736L432.86 380.87H433.175L434.099 379.736ZM433.805 392.21L433.826 382.487H432.923L430.487 383.033V383.243L431.6 383.432L432.23 383.852V392.21L431.579 392.651L430.466 392.777V392.987H435.569V392.777L434.456 392.651L433.805 392.21ZM443.939 384.02L441.125 382.277L438.542 382.844L436.295 385.196L435.749 388.073L436.925 391.664L439.928 393.197L442.49 392.672L444.611 390.047L443.834 389.606L442.532 391.958L440.516 392.693L438.227 391.664L437.156 388.913L437.66 385.448L438.815 383.348L440.474 382.781L442.574 383.999L443.057 386.519L444.611 386.204L443.939 384.02ZM457.664 382.487L456.74 383.264L455.795 385.49L455.9 384.566V382.487H454.997L452.561 383.033V383.243L453.674 383.432L454.325 383.873V392.21L453.674 392.651L452.561 392.777V392.987H457.664V392.777L456.551 392.651L455.9 392.21V386.057L457.055 383.957L458.378 383.201L459.932 383.453L460.226 382.445L459.323 382.277L457.664 382.487ZM468.839 390.047L468.062 389.606L466.76 391.958L464.744 392.693L462.455 391.664L461.384 388.913L461.531 387.863L464.849 388.052L468.986 387.422L468.671 385.217L467.621 383.537L465.353 382.277L462.77 382.844L460.523 385.196L459.977 388.073L461.153 391.664L464.156 393.197L466.718 392.672L468.839 390.047ZM461.888 385.448L463.043 383.348L464.702 382.781L466.256 383.516L467.18 385.238L467.285 387.233L464.429 387.611L461.594 387.443L461.888 385.448ZM479.237 396.41V382.487H478.775L477.662 383.705L476.255 382.613L473.693 382.277L471.635 384.02L470.459 387.191L471.005 390.278L472.937 392.63L475.856 393.197L477.746 391.79L477.662 392.693V396.41L476.801 396.851L475.478 396.977V397.187H481.001V396.977L479.888 396.851L479.237 396.41ZM475.73 392.567L473.294 392.168L472.37 390.026L471.908 386.792L472.979 384.461L474.134 382.928L476.15 383.18L477.662 384.272V391.118L475.73 392.567ZM490.722 392.21V382.487H489.819L487.383 383.033V383.243L488.496 383.432L489.147 383.873V389.417L487.824 391.517L486.459 392.252L485.115 392.021L484.086 390.698L484.107 382.487H483.204L480.768 383.033V383.243L481.881 383.432L482.511 383.852V391.055L483.855 392.798L485.724 393.197L487.173 392.84L488.139 392.21L489.252 389.984L489.147 390.908V391.832L488.874 392.777V392.987H492.486V392.777L491.373 392.651L490.722 392.21ZM495.888 379.736V379.421L494.964 378.287H494.691L493.725 379.421V379.736L494.649 380.87H494.964L495.888 379.736ZM495.594 392.21L495.615 382.487H494.712L492.276 383.033V383.243L493.389 383.432L494.019 383.852V392.21L493.368 392.651L492.255 392.777V392.987H497.358V392.777L496.245 392.651L495.594 392.21ZM502.221 382.487L501.297 383.264L500.352 385.49L500.457 384.566V382.487H499.554L497.118 383.033V383.243L498.231 383.432L498.882 383.873V392.21L498.231 392.651L497.118 392.777V392.987H502.221V392.777L501.108 392.651L500.457 392.21V386.057L501.612 383.957L502.935 383.201L504.489 383.453L504.783 382.445L503.88 382.277L502.221 382.487ZM513.395 390.047L512.618 389.606L511.316 391.958L509.3 392.693L507.011 391.664L505.94 388.913L506.087 387.863L509.405 388.052L513.542 387.422L513.227 385.217L512.177 383.537L509.909 382.277L507.326 382.844L505.079 385.196L504.533 388.073L505.709 391.664L508.712 393.197L511.274 392.672L513.395 390.047ZM506.444 385.448L507.599 383.348L509.258 382.781L510.812 383.516L511.736 385.238L511.841 387.233L508.985 387.611L506.15 387.443L506.444 385.448ZM530.366 392.21V384.419L529.022 382.676L527.153 382.277L525.704 382.634L524.738 383.264L523.709 384.398L522.386 382.676L520.517 382.277L519.068 382.634L518.102 383.264L516.989 385.49L517.094 384.566V382.487H516.191L513.755 383.033V383.243L514.868 383.432L515.519 383.873V392.21L514.868 392.651L513.755 392.777V392.987H518.858V392.777L517.745 392.651L517.094 392.21V386.057L518.417 383.957L519.782 383.222L521.126 383.453L522.155 384.776V392.21L521.504 392.651L520.391 392.777V392.987H525.494V392.777L524.381 392.651L523.73 392.21V385.847L524.213 384.629L525.053 383.957L526.418 383.222L527.762 383.453L528.791 384.776V392.21L528.14 392.651L527.027 392.777V392.987H532.13V392.777L531.017 392.651L530.366 392.21ZM541.168 390.047L540.391 389.606L539.089 391.958L537.073 392.693L534.784 391.664L533.713 388.913L533.86 387.863L537.178 388.052L541.315 387.422L541 385.217L539.95 383.537L537.682 382.277L535.099 382.844L532.852 385.196L532.306 388.073L533.482 391.664L536.485 393.197L539.047 392.672L541.168 390.047ZM534.217 385.448L535.372 383.348L537.031 382.781L538.585 383.516L539.509 385.238L539.614 387.233L536.758 387.611L533.923 387.443L534.217 385.448ZM551.503 392.21V384.419L550.159 382.676L548.29 382.277L546.841 382.634L545.875 383.264L544.762 385.49L544.867 384.566V382.487H543.964L541.528 383.033V383.243L542.641 383.432L543.292 383.873V392.21L542.641 392.651L541.528 392.777V392.987H546.631V392.777L545.518 392.651L544.867 392.21V386.057L546.19 383.957L547.555 383.222L548.899 383.453L549.928 384.776V392.21L549.277 392.651L548.164 392.777V392.987H553.267V392.777L552.154 392.651L551.503 392.21ZM556.395 383.327H559.272V382.487H557.13L556.059 382.634L556.395 381.689V378.707H555.975L555.387 379.925L554.82 382.718L553.035 382.907V383.327H554.82V390.992L556.227 393.197L558.474 392.798L559.356 391.076L558.978 390.866L558.075 392.231L557.088 392.084L556.395 390.53V383.327ZM567.193 389.921L567.403 391.118L565.807 392.483L564.022 392.798L562.741 392.189L561.754 391.16L560.914 389.963H560.704L561.166 392.294L562.909 393.176H564.799L566.983 392.798L568.39 391.307L568.453 389.774L566.92 388.052L561.754 385.553L561.544 384.356L563.14 382.991L564.925 382.676L566.206 383.285L567.193 384.314L568.033 385.511H568.243L567.781 383.18L566.038 382.298H564.148L561.964 382.676L560.557 384.167L560.494 385.7L562.027 387.422L567.193 389.921Z" fill="black"/>
<path d="M494.78 215.485L494.003 215.044L492.701 217.396L490.685 218.131L488.396 217.102L487.325 214.351L487.472 213.301L490.79 213.49L494.927 212.86L494.612 210.655L493.562 208.975L491.294 207.715L488.711 208.282L486.464 210.634L485.918 213.511L487.094 217.102L490.097 218.635L492.659 218.11L494.78 215.485ZM487.829 210.886L488.984 208.786L490.643 208.219L492.197 208.954L493.121 210.676L493.226 212.671L490.37 213.049L487.535 212.881L487.829 210.886ZM504.59 209.458L501.776 207.715L499.193 208.282L496.946 210.634L496.4 213.511L497.576 217.102L500.579 218.635L503.141 218.11L505.262 215.485L504.485 215.044L503.183 217.396L501.167 218.131L498.878 217.102L497.807 214.351L498.311 210.886L499.466 208.786L501.125 208.219L503.225 209.437L503.708 211.957L505.262 211.642L504.59 209.458ZM513.249 218.11L515.475 215.716L516.168 212.23L514.74 209.353L512.094 207.715L509.511 208.282L507.264 210.634L506.718 213.511L507.894 216.892L510.687 218.635L513.249 218.11ZM509.196 216.892L508.125 214.351L508.629 210.886L509.784 208.786L511.443 208.219L513.543 209.437L514.614 212.419L514.11 215.884L513.039 217.543L511.275 218.131L509.196 216.892ZM526.365 217.648V209.857L525.021 208.114L523.152 207.715L521.703 208.072L520.737 208.702L519.624 210.928L519.729 210.004V207.925H518.826L516.39 208.471V208.681L517.503 208.87L518.154 209.311V217.648L517.503 218.089L516.39 218.215V218.425H521.493V218.215L520.38 218.089L519.729 217.648V211.495L521.052 209.395L522.417 208.66L523.761 208.891L524.79 210.214V217.648L524.139 218.089L523.026 218.215V218.425H528.129V218.215L527.016 218.089L526.365 217.648ZM534.849 218.11L537.075 215.716L537.768 212.23L536.34 209.353L533.694 207.715L531.111 208.282L528.864 210.634L528.318 213.511L529.494 216.892L532.287 218.635L534.849 218.11ZM530.796 216.892L529.725 214.351L530.229 210.886L531.384 208.786L533.043 208.219L535.143 209.437L536.214 212.419L535.71 215.884L534.639 217.543L532.875 218.131L530.796 216.892ZM554.601 217.648V209.857L553.257 208.114L551.388 207.715L549.939 208.072L548.973 208.702L547.944 209.836L546.621 208.114L544.752 207.715L543.303 208.072L542.337 208.702L541.224 210.928L541.329 210.004V207.925H540.426L537.99 208.471V208.681L539.103 208.87L539.754 209.311V217.648L539.103 218.089L537.99 218.215V218.425H543.093V218.215L541.98 218.089L541.329 217.648V211.495L542.652 209.395L544.017 208.66L545.361 208.891L546.39 210.214V217.648L545.739 218.089L544.626 218.215V218.425H549.729V218.215L548.616 218.089L547.965 217.648V211.285L548.448 210.067L549.288 209.395L550.653 208.66L551.997 208.891L553.026 210.214V217.648L552.375 218.089L551.262 218.215V218.425H556.365V218.215L555.252 218.089L554.601 217.648ZM559.755 205.174V204.859L558.831 203.725H558.558L557.592 204.859V205.174L558.516 206.308H558.831L559.755 205.174ZM559.461 217.648L559.482 207.925H558.579L556.143 208.471V208.681L557.256 208.87L557.886 209.29V217.648L557.235 218.089L556.122 218.215V218.425H561.225V218.215L560.112 218.089L559.461 217.648ZM569.595 209.458L566.781 207.715L564.198 208.282L561.951 210.634L561.405 213.511L562.581 217.102L565.584 218.635L568.146 218.11L570.267 215.485L569.49 215.044L568.188 217.396L566.172 218.131L563.883 217.102L562.812 214.351L563.316 210.886L564.471 208.786L566.13 208.219L568.23 209.437L568.713 211.957L570.267 211.642L569.595 209.458ZM578.527 215.359L578.737 216.556L577.141 217.921L575.356 218.236L574.075 217.627L573.088 216.598L572.248 215.401H572.038L572.5 217.732L574.243 218.614H576.133L578.317 218.236L579.724 216.745L579.787 215.212L578.254 213.49L573.088 210.991L572.878 209.794L574.474 208.429L576.259 208.114L577.54 208.723L578.527 209.752L579.367 210.949H579.577L579.115 208.618L577.372 207.736H575.482L573.298 208.114L571.891 209.605L571.828 211.138L573.361 212.86L578.527 215.359Z" fill="black"/>
<rect x="239" y="356.608" width="400" height="16.9935" fill="#FAFAFA"/>
<path d="M364.49 178.124L351.418 193.157H378.216L364.49 178.124ZM364.49 178.124L449.5 142L526.5 178.124M526.5 178.124L514 193.157H540L526.5 178.124Z" stroke="black" stroke-width="4"/>
<path d="M364 234.5L303 263.5M364 234.5L372 263.5M364 234.5L420.5 263.5M303 263.5L290.5 278H316L303 263.5ZM372 263.5L359.5 278H385L372 263.5ZM420.5 263.5L408.5 278H434L420.5 263.5Z" stroke="black" stroke-width="4"/>
<path d="M487.5 263.5L528.5 236L568.5 263.5M487.5 263.5L474 278.5H501L487.5 263.5ZM568.5 263.5L555.5 278.5H582L568.5 263.5Z" stroke="black" stroke-width="4"/>
</svg>
