<svg width="900" height="480" viewBox="0 0 900 480" fill="none" xmlns="http://www.w3.org/2000/svg">
<rect width="900" height="480" fill="#FAFAFA"/>
<mask id="mask0_339_2" style="mask-type:alpha" maskUnits="userSpaceOnUse" x="338" y="129" width="230" height="212">
<path d="M567.183 231.01C576.657 292.838 501.865 348.184 439.039 339.209C376.214 330.234 349.289 301.813 339.316 239.985C329.344 178.157 398.153 121.813 459.482 129.791C520.812 137.769 557.71 169.182 567.183 231.01Z" fill="#D9D9D9"/>
</mask>
<g mask="url(#mask0_339_2)">
<g opacity="0.1">
<path d="M123 91L403 371" stroke="black"/>
<path d="M133 91L413 371" stroke="black"/>
<path d="M143 91L423 371" stroke="black"/>
<path d="M153 91L433 371" stroke="black"/>
<path d="M163 91L443 371" stroke="black"/>
<path d="M173 91L453 371" stroke="black"/>
<path d="M183 91L463 371" stroke="black"/>
<path d="M193 91L473 371" stroke="black"/>
<path d="M203 91L483 371" stroke="black"/>
<path d="M213 91L493 371" stroke="black"/>
<path d="M223 91L503 371" stroke="black"/>
<path d="M233 91L513 371" stroke="black"/>
<path d="M243 91L523 371" stroke="black"/>
<path d="M253 91L533 371" stroke="black"/>
<path d="M263 91L543 371" stroke="black"/>
<path d="M273 91L553 371" stroke="black"/>
<path d="M283 91L563 371" stroke="black"/>
<path d="M293 91L573 371" stroke="black"/>
<path d="M303 91L583 371" stroke="black"/>
<path d="M313 91L593 371" stroke="black"/>
<path d="M323 91L603 371" stroke="black"/>
<path d="M333 91L613 371" stroke="black"/>
<path d="M343 91L623 371" stroke="black"/>
<path d="M353 91L633 371" stroke="black"/>
<path d="M363 91L643 371" stroke="black"/>
<path d="M373 91L653 371" stroke="black"/>
<path d="M383 91L663 371" stroke="black"/>
<path d="M393 91L673 371" stroke="black"/>
<path d="M403 91L683 371" stroke="black"/>
<path d="M413 91L693 371" stroke="black"/>
<path d="M423 91L703 371" stroke="black"/>
<path d="M433 91L713 371" stroke="black"/>
<path d="M443 91L723 371" stroke="black"/>
<path d="M453 91L733 371" stroke="black"/>
<path d="M463 91L743 371" stroke="black"/>
<path d="M473 91L753 371" stroke="black"/>
<path d="M483 91L763 371" stroke="black"/>
<path d="M493 91L773 371" stroke="black"/>
<path d="M503 91L783 371" stroke="black"/>
<path d="M513 91L793 371" stroke="black"/>
<path d="M523 91L803 371" stroke="black"/>
</g>
</g>
<path d="M567.5 231C577 293 502 348.5 439 339.5C376 330.5 349 302 339 240C329 178 398 121.5 459.5 129.5C521 137.5 558 169 567.5 231Z" stroke="#D9D9D9" stroke-width="12"/>
<path d="M515.5 253.5C515.5 291.055 491.089 310 453.534 310C415.978 310 382.5 290.5 377 253.5C371.5 216.5 366.5 185 416.5 164C466.5 143 515.5 215.945 515.5 253.5Z" fill="black"/>
<path d="M234.208 224.736L236.48 223.84L239.232 224V221.6H237.152L234.08 222.784L232.032 225.952L231.072 230.4L228.32 230.688V231.328H231.04V242.656L231.008 242.816L230.016 243.488L228.32 243.68V244H236.736V243.68L234.72 243.488L233.44 242.848V231.328H237.824V230.048H234.56L233.44 230.176V228.768L233.632 226.336L234.208 224.736ZM249.415 243.52L252.807 239.872L253.863 234.56L251.687 230.176L247.655 227.68L243.719 228.544L240.295 232.128L239.463 236.512L241.255 241.664L245.511 244.32L249.415 243.52ZM243.239 241.664L241.607 237.792L242.375 232.512L244.135 229.312L246.663 228.448L249.863 230.304L251.495 234.848L250.727 240.128L249.095 242.656L246.407 243.552L243.239 241.664ZM262.32 228L260.912 229.184L259.472 232.576L259.632 231.168V228H258.256L254.544 228.832V229.152L256.24 229.44L257.232 230.112V242.816L256.24 243.488L254.544 243.68V244H262.32V243.68L260.624 243.488L259.632 242.816V233.44L261.392 230.24L263.408 229.088L265.776 229.472L266.224 227.936L264.848 227.68L262.32 228ZM292.14 242.816V230.944L290.092 228.288L287.244 227.68L285.036 228.224L283.564 229.184L281.996 230.912L279.98 228.288L277.132 227.68L274.924 228.224L273.452 229.184L271.756 232.576L271.916 231.168V228H270.54L266.828 228.832V229.152L268.524 229.44L269.516 230.112V242.816L268.524 243.488L266.828 243.68V244H274.604V243.68L272.908 243.488L271.916 242.816V233.44L273.932 230.24L276.012 229.12L278.06 229.472L279.628 231.488V242.816L278.636 243.488L276.94 243.68V244H284.716V243.68L283.02 243.488L282.028 242.816V233.12L282.764 231.264L284.044 230.24L286.124 229.12L288.172 229.472L289.74 231.488V242.816L288.748 243.488L287.052 243.68V244H294.828V243.68L293.132 243.488L292.14 242.816Z" fill="black"/>
<path opacity="0.5" d="M619.44 230.336L615.152 227.68L611.216 228.544L607.792 232.128L606.96 236.512L608.752 241.984L613.328 244.32L617.232 243.52L620.464 239.52L619.28 238.848L617.296 242.432L614.224 243.552L610.736 241.984L609.104 237.792L609.872 232.512L611.632 229.312L614.16 228.448L617.36 230.304L618.096 234.144L620.464 233.664L619.44 230.336ZM632.977 243.52L636.369 239.872L637.425 234.56L635.249 230.176L631.217 227.68L627.281 228.544L623.857 232.128L623.025 236.512L624.817 241.664L629.073 244.32L632.977 243.52ZM626.801 241.664L625.169 237.792L625.937 232.512L627.697 229.312L630.225 228.448L633.425 230.304L635.057 234.848L634.289 240.128L632.657 242.656L629.969 243.552L626.801 241.664ZM653.307 242.816V230.944L651.259 228.288L648.411 227.68L646.203 228.224L644.731 229.184L643.035 232.576L643.195 231.168V228H641.819L638.107 228.832V229.152L639.803 229.44L640.795 230.112V242.816L639.803 243.488L638.107 243.68V244H645.883V243.68L644.187 243.488L643.195 242.816V233.44L645.211 230.24L647.291 229.12L649.339 229.472L650.907 231.488V242.816L649.915 243.488L648.219 243.68V244H655.995V243.68L654.299 243.488L653.307 242.816ZM661.104 229.28H665.488V228H662.224L660.592 228.224L661.104 226.784V222.24H660.464L659.568 224.096L658.704 228.352L655.984 228.64V229.28H658.704V240.96L660.848 244.32L664.272 243.712L665.616 241.088L665.04 240.768L663.664 242.848L662.16 242.624L661.104 240.256V229.28ZM680.381 239.52L679.197 238.848L677.213 242.432L674.141 243.552L670.653 241.984L669.021 237.792L669.245 236.192L674.301 236.48L680.605 235.52L680.125 232.16L678.525 229.6L675.069 227.68L671.133 228.544L667.709 232.128L666.877 236.512L668.669 241.984L673.245 244.32L677.149 243.52L680.381 239.52ZM669.789 232.512L671.549 229.312L674.077 228.448L676.445 229.568L677.853 232.192L678.013 235.232L673.661 235.808L669.341 235.552L669.789 232.512ZM693.399 239.968L690.519 235.328L694.295 230.528L695.735 228.864L697.751 228.32L697.815 228H691.799L691.735 228.32L692.823 228.64L693.399 229.6L693.495 230.4L690.135 234.688L689.527 233.728L686.007 228.64L685.175 228H681.335L681.399 228.32L683.319 229.248L685.719 232.032L688.567 236.64L684.791 241.472L683.351 243.136L681.335 243.68L681.271 244H687.287L687.351 243.68L686.263 243.36L685.687 242.4L685.591 241.6L688.983 237.28L689.527 238.176L693.111 243.36L693.943 244H697.783L697.719 243.68L695.799 242.752L693.399 239.968ZM704.831 229.28H709.215V228H705.951L704.319 228.224L704.831 226.784V222.24H704.191L703.295 224.096L702.431 228.352L699.711 228.64V229.28H702.431V240.96L704.575 244.32L707.999 243.712L709.343 241.088L708.767 240.768L707.391 242.848L705.887 242.624L704.831 240.256V229.28Z" fill="black"/>
<path opacity="0.5" d="M444.208 394.736L446.48 393.84L449.232 394V391.6H447.152L444.08 392.784L442.032 395.952L441.072 400.4L438.32 400.688V401.328H441.04V412.656L441.008 412.816L440.016 413.488L438.32 413.68V414H446.736V413.68L444.72 413.488L443.44 412.848V401.328H447.824V400.048H444.56L443.44 400.176V398.768L443.632 396.336L444.208 394.736ZM454.671 393.808V393.328L453.263 391.6H452.847L451.375 393.328V393.808L452.783 395.536H453.263L454.671 393.808ZM454.223 412.816L454.255 398H452.879L449.167 398.832V399.152L450.863 399.44L451.823 400.08V412.816L450.831 413.488L449.135 413.68V414H456.911V413.68L455.215 413.488L454.223 412.816ZM462.008 399.28H466.392V398H463.128L461.496 398.224L462.008 396.784V392.24H461.368L460.472 394.096L459.608 398.352L456.888 398.64V399.28H459.608V410.96L461.752 414.32L465.176 413.712L466.52 411.088L465.944 410.768L464.568 412.848L463.064 412.624L462.008 410.256V399.28Z" fill="black"/>
</svg>
