<svg width="900" height="480" viewBox="0 0 900 480" fill="none" xmlns="http://www.w3.org/2000/svg">
<rect width="900" height="480" fill="#FAFAFA"/>
<path d="M420.75 152.875L470.125 326M420.75 152.875L357 258.5M420.75 152.875L556.375 216M470.125 326L556.375 216M470.125 326L357 258.5M556.375 216L357 258.5" stroke="black" stroke-width="5"/>
<circle cx="357" cy="259.125" r="10" fill="black"/>
<circle cx="557" cy="217.875" r="10" fill="black"/>
<circle cx="470.75" cy="324.125" r="10" fill="black"/>
<path d="M272.518 128.29L269.956 128.815L268.549 130.138V128.5H267.646L265.21 129.046V129.256L266.323 129.445L266.974 129.886V142.423L266.323 142.864L265.21 142.99V143.2H270.733V142.99L269.41 142.864L268.549 142.423V138.706L268.465 137.803L270.355 139.21L273.274 138.643L275.206 136.291L275.752 133.624L274.576 130.033L272.518 128.29ZM272.917 138.181L270.481 138.58L268.549 137.131V130.705L270.061 129.382L272.077 128.941L273.232 130.474L274.303 133.225L273.841 136.039L272.917 138.181ZM286.061 136.06L285.284 135.619L283.982 137.971L281.966 138.706L279.677 137.677L278.606 134.926L278.753 133.876L282.071 134.065L286.208 133.435L285.893 131.23L284.843 129.55L282.575 128.29L279.992 128.857L277.745 131.209L277.199 134.086L278.375 137.677L281.378 139.21L283.94 138.685L286.061 136.06ZM279.11 131.461L280.265 129.361L281.924 128.794L283.478 129.529L284.402 131.251L284.507 133.246L281.651 133.624L278.816 133.456L279.11 131.461ZM291.523 128.5L290.599 129.277L289.654 131.503L289.759 130.579V128.5H288.856L286.42 129.046V129.256L287.533 129.445L288.184 129.886V138.223L287.533 138.664L286.42 138.79V139H291.523V138.79L290.41 138.664L289.759 138.223V132.07L290.914 129.97L292.237 129.214L293.791 129.466L294.085 128.458L293.182 128.29L291.523 128.5ZM297.916 126.358L299.407 125.77L301.213 125.875V124.3H299.848L297.832 125.077L296.488 127.156L295.858 130.075L294.052 130.264V130.684H295.837V138.118L295.816 138.223L295.165 138.664L294.052 138.79V139H299.575V138.79L298.252 138.664L297.412 138.244V130.684H300.289V129.844H298.147L297.412 129.928V129.004L297.538 127.408L297.916 126.358ZM307.671 138.685L309.897 136.291L310.59 132.805L309.162 129.928L306.516 128.29L303.933 128.857L301.686 131.209L301.14 134.086L302.316 137.467L305.109 139.21L307.671 138.685ZM303.618 137.467L302.547 134.926L303.051 131.461L304.206 129.361L305.865 128.794L307.965 130.012L309.036 132.994L308.532 136.459L307.461 138.118L305.697 138.706L303.618 137.467ZM315.915 128.5L314.991 129.277L314.046 131.503L314.151 130.579V128.5H313.248L310.812 129.046V129.256L311.925 129.445L312.576 129.886V138.223L311.925 138.664L310.812 138.79V139H315.915V138.79L314.802 138.664L314.151 138.223V132.07L315.306 129.97L316.629 129.214L318.183 129.466L318.477 128.458L317.574 128.29L315.915 128.5ZM335.26 138.223V130.432L333.916 128.689L332.047 128.29L330.598 128.647L329.632 129.277L328.603 130.411L327.28 128.689L325.411 128.29L323.962 128.647L322.996 129.277L321.883 131.503L321.988 130.579V128.5H321.085L318.649 129.046V129.256L319.762 129.445L320.413 129.886V138.223L319.762 138.664L318.649 138.79V139H323.752V138.79L322.639 138.664L321.988 138.223V132.07L323.311 129.97L324.676 129.235L326.02 129.466L327.049 130.789V138.223L326.398 138.664L325.285 138.79V139H330.388V138.79L329.275 138.664L328.624 138.223V131.86L329.107 130.642L329.947 129.97L331.312 129.235L332.656 129.466L333.685 130.789V138.223L333.034 138.664L331.921 138.79V139H337.024V138.79L335.911 138.664L335.26 138.223ZM337.51 137.383L339.064 138.895L340.87 139.21L342.382 138.748L343.327 137.782L344.083 136.48L344.125 137.698L343.81 138.79V139H347.422V138.79L346.309 138.664L345.658 138.223V132.175L344.608 129.466L342.823 128.269L340.198 128.437L338.539 129.886L337.825 131.923H339.4L339.904 130.222L340.933 129.067L342.382 128.899L343.579 130.243L344.083 131.755V132.175L338.77 134.149L337.405 135.745L337.51 137.383ZM339.967 134.401L344.083 132.616V135.661L343.243 137.236L341.731 138.034L339.799 137.656L339.064 136.795L338.98 135.535L339.967 134.401ZM357.381 138.223V130.432L356.037 128.689L354.168 128.29L352.719 128.647L351.753 129.277L350.64 131.503L350.745 130.579V128.5H349.842L347.406 129.046V129.256L348.519 129.445L349.17 129.886V138.223L348.519 138.664L347.406 138.79V139H352.509V138.79L351.396 138.664L350.745 138.223V132.07L352.068 129.97L353.433 129.235L354.777 129.466L355.806 130.789V138.223L355.155 138.664L354.042 138.79V139H359.145V138.79L358.032 138.664L357.381 138.223ZM367.524 130.033L364.71 128.29L362.127 128.857L359.88 131.209L359.334 134.086L360.51 137.677L363.513 139.21L366.075 138.685L368.196 136.06L367.419 135.619L366.117 137.971L364.101 138.706L361.812 137.677L360.741 134.926L361.245 131.461L362.4 129.361L364.059 128.794L366.159 130.012L366.642 132.532L368.196 132.217L367.524 130.033ZM378.514 136.06L377.737 135.619L376.435 137.971L374.419 138.706L372.13 137.677L371.059 134.926L371.206 133.876L374.524 134.065L378.661 133.435L378.346 131.23L377.296 129.55L375.028 128.29L372.445 128.857L370.198 131.209L369.652 134.086L370.828 137.677L373.831 139.21L376.393 138.685L378.514 136.06ZM371.563 131.461L372.718 129.361L374.377 128.794L375.931 129.529L376.855 131.251L376.96 133.246L374.104 133.624L371.269 133.456L371.563 131.461Z" fill="black"/>
<path d="M268.486 278.3L267.52 279.434V279.749L268.444 280.883H268.759L269.683 279.749V279.434L268.759 278.3H268.486ZM266.071 283.256L267.184 283.445L267.814 283.865V292.496L267.688 294.092L267.247 295.541L266.113 295.751H265.315L265.21 297.2H266.323L267.604 296.423L269.074 293.777L269.389 291.362L269.41 282.5H268.507L266.071 283.046V283.256ZM278.111 292.685L280.337 290.291L281.03 286.805L279.602 283.928L276.956 282.29L274.373 282.857L272.126 285.209L271.58 288.086L272.756 291.467L275.549 293.21L278.111 292.685ZM274.058 291.467L272.987 288.926L273.491 285.461L274.646 283.361L276.305 282.794L278.405 284.012L279.476 286.994L278.972 290.459L277.901 292.118L276.137 292.706L274.058 291.467ZM285.296 279.749V279.434L284.372 278.3H284.099L283.133 279.434V279.749L284.057 280.883H284.372L285.296 279.749ZM285.002 292.223L285.023 282.5H284.12L281.684 283.046V283.256L282.797 283.445L283.427 283.865V292.223L282.776 292.664L281.663 292.79V293H286.766V292.79L285.653 292.664L285.002 292.223ZM296.501 292.223V284.432L295.157 282.689L293.288 282.29L291.839 282.647L290.873 283.277L289.76 285.503L289.865 284.579V282.5H288.962L286.526 283.046V283.256L287.639 283.445L288.29 283.886V292.223L287.639 292.664L286.526 292.79V293H291.629V292.79L290.516 292.664L289.865 292.223V286.07L291.188 283.97L292.553 283.235L293.897 283.466L294.926 284.789V292.223L294.275 292.664L293.162 292.79V293H298.265V292.79L297.152 292.664L296.501 292.223ZM301.393 283.34H304.27V282.5H302.128L301.057 282.647L301.393 281.702V278.72H300.973L300.385 279.938L299.818 282.731L298.033 282.92V283.34H299.818V291.005L301.225 293.21L303.472 292.811L304.354 291.089L303.976 290.879L303.073 292.244L302.086 292.097L301.393 290.543V283.34ZM308.17 279.749V279.434L307.246 278.3H306.973L306.007 279.434V279.749L306.931 280.883H307.246L308.17 279.749ZM307.876 292.223L307.897 282.5H306.994L304.558 283.046V283.256L305.671 283.445L306.301 283.865V292.223L305.65 292.664L304.537 292.79V293H309.64V292.79L308.527 292.664L307.876 292.223ZM319.375 292.223V284.432L318.031 282.689L316.162 282.29L314.713 282.647L313.747 283.277L312.634 285.503L312.739 284.579V282.5H311.836L309.4 283.046V283.256L310.513 283.445L311.164 283.886V292.223L310.513 292.664L309.4 292.79V293H314.503V292.79L313.39 292.664L312.739 292.223V286.07L314.062 283.97L315.427 283.235L316.771 283.466L317.8 284.789V292.223L317.149 292.664L316.036 292.79V293H321.139V292.79L320.026 292.664L319.375 292.223ZM322.955 295.184L325.706 295.751L328.667 295.436L329.969 294.512L330.536 292.517L329.78 291.11L327.197 290.606L323.417 290.69L323.291 289.577L323.942 288.548L325.16 289.304L327.722 288.779L329.948 286.385L329.213 283.928L328.373 283.403L328.604 283.319L330.536 283.424L330.41 282.5H329.045L327.722 283.004L326.567 282.29L323.984 282.857L321.737 285.209L322.367 287.561L323.501 288.275L322.43 289.913L322.619 291.467L323.186 291.74L322.073 292.496L321.737 294.239L322.955 295.184ZM323.669 287.561L323.102 285.461L324.257 283.361L325.916 282.794L328.016 284.012L328.583 286.553L327.512 288.212L325.748 288.8L323.669 287.561ZM322.955 292.811L323.543 291.908L324.257 292.244L327.806 292.097L329.402 292.538L329.675 293.336L329.339 294.281L327.911 294.848L325.244 295.079L322.955 294.113V292.811Z" fill="black"/>
<path d="M485.492 361.06L484.715 360.619L483.413 362.971L481.397 363.706L479.108 362.677L478.037 359.926L478.184 358.876L481.502 359.065L485.639 358.435L485.324 356.23L484.274 354.55L482.006 353.29L479.423 353.857L477.176 356.209L476.63 359.086L477.806 362.677L480.809 364.21L483.371 363.685L485.492 361.06ZM478.541 356.461L479.696 354.361L481.355 353.794L482.909 354.529L483.833 356.251L483.938 358.246L481.082 358.624L478.247 358.456L478.541 356.461ZM495.302 355.033L492.488 353.29L489.905 353.857L487.658 356.209L487.112 359.086L488.288 362.677L491.291 364.21L493.853 363.685L495.974 361.06L495.197 360.619L493.895 362.971L491.879 363.706L489.59 362.677L488.519 359.926L489.023 356.461L490.178 354.361L491.837 353.794L493.937 355.012L494.42 357.532L495.974 357.217L495.302 355.033ZM503.961 363.685L506.187 361.291L506.88 357.805L505.452 354.928L502.806 353.29L500.223 353.857L497.976 356.209L497.43 359.086L498.606 362.467L501.399 364.21L503.961 363.685ZM499.908 362.467L498.837 359.926L499.341 356.461L500.496 354.361L502.155 353.794L504.255 355.012L505.326 357.994L504.822 361.459L503.751 363.118L501.987 363.706L499.908 362.467ZM517.078 363.223V355.432L515.734 353.689L513.865 353.29L512.416 353.647L511.45 354.277L510.337 356.503L510.442 355.579V353.5H509.539L507.103 354.046V354.256L508.216 354.445L508.867 354.886V363.223L508.216 363.664L507.103 363.79V364H512.206V363.79L511.093 363.664L510.442 363.223V357.07L511.765 354.97L513.13 354.235L514.474 354.466L515.503 355.789V363.223L514.852 363.664L513.739 363.79V364H518.842V363.79L517.729 363.664L517.078 363.223ZM525.561 363.685L527.787 361.291L528.48 357.805L527.052 354.928L524.406 353.29L521.823 353.857L519.576 356.209L519.03 359.086L520.206 362.467L522.999 364.21L525.561 363.685ZM521.508 362.467L520.437 359.926L520.941 356.461L522.096 354.361L523.755 353.794L525.855 355.012L526.926 357.994L526.422 361.459L525.351 363.118L523.587 363.706L521.508 362.467ZM545.314 363.223V355.432L543.97 353.689L542.101 353.29L540.652 353.647L539.686 354.277L538.657 355.411L537.334 353.689L535.465 353.29L534.016 353.647L533.05 354.277L531.937 356.503L532.042 355.579V353.5H531.139L528.703 354.046V354.256L529.816 354.445L530.467 354.886V363.223L529.816 363.664L528.703 363.79V364H533.806V363.79L532.693 363.664L532.042 363.223V357.07L533.365 354.97L534.73 354.235L536.074 354.466L537.103 355.789V363.223L536.452 363.664L535.339 363.79V364H540.442V363.79L539.329 363.664L538.678 363.223V356.86L539.161 355.642L540.001 354.97L541.366 354.235L542.71 354.466L543.739 355.789V363.223L543.088 363.664L541.975 363.79V364H547.078V363.79L545.965 363.664L545.314 363.223ZM553.26 353.71L553.974 353.92L554.352 354.55L554.436 355.306L551.58 361.753L551.37 361.795L549.48 355.264L549.711 354.256L551.265 353.71L551.307 353.5H546.876L546.834 353.71L547.317 354.13L547.737 354.823L550.278 363.769L549.879 365.407L548.955 366.604L547.758 366.751H546.729L546.624 368.2H547.968L549.249 367.423L550.719 364.777L554.961 355.159L555.885 354.067L557.208 353.71L557.25 353.5H553.302L553.26 353.71Z" fill="black"/>
<path d="M585.434 197.934L585.644 199.131L584.048 200.496L582.263 200.811L580.982 200.202L579.995 199.173L579.155 197.976H578.945L579.407 200.307L581.15 201.189H583.04L585.224 200.811L586.631 199.32L586.694 197.787L585.161 196.065L579.995 193.566L579.785 192.369L581.381 191.004L583.166 190.689L584.447 191.298L585.434 192.327L586.274 193.524H586.484L586.022 191.193L584.279 190.311H582.389L580.205 190.689L578.798 192.18L578.735 193.713L580.268 195.435L585.434 197.934ZM591.997 187.749V187.434L591.073 186.3H590.8L589.834 187.434V187.749L590.758 188.883H591.073L591.997 187.749ZM591.703 200.223L591.724 190.5H590.821L588.385 191.046V191.256L589.498 191.445L590.128 191.865V200.223L589.477 200.664L588.364 200.79V201H593.467V200.79L592.354 200.664L591.703 200.223ZM609.838 200.223V192.432L608.494 190.689L606.625 190.29L605.176 190.647L604.21 191.277L603.181 192.411L601.858 190.689L599.989 190.29L598.54 190.647L597.574 191.277L596.461 193.503L596.566 192.579V190.5H595.663L593.227 191.046V191.256L594.34 191.445L594.991 191.886V200.223L594.34 200.664L593.227 200.79V201H598.33V200.79L597.217 200.664L596.566 200.223V194.07L597.889 191.97L599.254 191.235L600.598 191.466L601.627 192.789V200.223L600.976 200.664L599.863 200.79V201H604.966V200.79L603.853 200.664L603.202 200.223V193.86L603.685 192.642L604.525 191.97L605.89 191.235L607.234 191.466L608.263 192.789V200.223L607.612 200.664L606.499 200.79V201H611.602V200.79L610.489 200.664L609.838 200.223ZM618.667 190.29L616.105 190.815L614.698 192.138V190.5H613.795L611.359 191.046V191.256L612.472 191.445L613.123 191.886V204.423L612.472 204.864L611.359 204.99V205.2H616.882V204.99L615.559 204.864L614.698 204.423V200.706L614.614 199.803L616.504 201.21L619.423 200.643L621.355 198.291L621.901 195.624L620.725 192.033L618.667 190.29ZM619.066 200.181L616.63 200.58L614.698 199.131V192.705L616.21 191.382L618.226 190.941L619.381 192.474L620.452 195.225L619.99 198.039L619.066 200.181ZM625.426 200.223L625.447 186.3H624.544L622.108 186.846V187.056L623.221 187.245L623.851 187.665V200.223L623.2 200.664L622.087 200.79V201H627.19V200.79L626.077 200.664L625.426 200.223ZM630.583 187.749V187.434L629.659 186.3H629.386L628.42 187.434V187.749L629.344 188.883H629.659L630.583 187.749ZM630.289 200.223L630.31 190.5H629.407L626.971 191.046V191.256L628.084 191.445L628.714 191.865V200.223L628.063 200.664L626.95 200.79V201H632.053V200.79L630.94 200.664L630.289 200.223ZM640.423 192.033L637.609 190.29L635.026 190.857L632.779 193.209L632.233 196.086L633.409 199.677L636.412 201.21L638.974 200.685L641.095 198.06L640.318 197.619L639.016 199.971L637 200.706L634.711 199.677L633.64 196.926L634.144 193.461L635.299 191.361L636.958 190.794L639.058 192.012L639.541 194.532L641.095 194.217L640.423 192.033ZM644.923 187.749V187.434L643.999 186.3H643.726L642.76 187.434V187.749L643.684 188.883H643.999L644.923 187.749ZM644.629 200.223L644.65 190.5H643.747L641.311 191.046V191.256L642.424 191.445L643.054 191.865V200.223L642.403 200.664L641.29 200.79V201H646.393V200.79L645.28 200.664L644.629 200.223ZM649.513 191.34H652.39V190.5H650.248L649.177 190.647L649.513 189.702V186.72H649.093L648.505 187.938L647.938 190.731L646.153 190.92V191.34H647.938V199.005L649.345 201.21L651.592 200.811L652.474 199.089L652.096 198.879L651.193 200.244L650.206 200.097L649.513 198.543V191.34ZM659.513 190.71L660.227 190.92L660.605 191.55L660.689 192.306L657.833 198.753L657.623 198.795L655.733 192.264L655.964 191.256L657.518 190.71L657.56 190.5H653.129L653.087 190.71L653.57 191.13L653.99 191.823L656.531 200.769L656.132 202.407L655.208 203.604L654.011 203.751H652.982L652.877 205.2H654.221L655.502 204.423L656.972 201.777L661.214 192.159L662.138 191.067L663.461 190.71L663.503 190.5H659.555L659.513 190.71Z" fill="black"/>
<circle cx="420.75" cy="152.875" r="10" fill="black"/>
<path d="M486.091 258.549V242.814H488.216V258.549H486.091ZM479.28 251.738V249.625H495.027V251.738H479.28Z" fill="black"/>
<path d="M460.75 193.668V195.756H443.25V193.668H460.75Z" fill="black"/>
<path d="M507 171.168V173.256H489.5V171.168H507Z" fill="black"/>
<path d="M378.25 194.918V197.006H360.75V194.918H378.25Z" fill="black"/>
<path d="M407 306.168V308.256H389.5V306.168H407Z" fill="black"/>
<path d="M539.5 284.918V287.006H522V284.918H539.5Z" fill="black"/>
</svg>
